# xmcd
#
# Track frame offsets:
#	150
#	13042
#	40798
#	70288
#
# Disc length: 1410 seconds
#
# Revision: 0
# Processed by: cddbd v1.5.2PL0 Copyright (c) Steve Scherf et al.
# Submitted via: EasyCDDAExtractor 16.0.9.1
#
DISCID=2c058004
DTITLE=Orth - Big Brother Is Watching You
DYEAR=2000
DGENRE=House
TTITLE0=Big Brother Is Watching You (Radio Cut)
TTITLE1=Big Brother Is Watching You (X-tended Cut)
TTITLE2=Big Brother Is Watching You (A.H. 333 Remix)
TTITLE3=Big Brother Is Watching You (ER.TO. Of Pulsemaster DJ Team)
EXTD=
EXTT0=
EXTT1=
EXTT2=
EXTT3=
PLAYORDER=
